<?xml version="1.0" encoding="utf-8"?>
<!-- Generator: Adobe Illustrator 24.0.3, SVG Export Plug-In . SVG Version: 6.00 Build 0)  -->
<svg version="1.1" baseProfile="tiny" id="Layer_1" xmlns="http://www.w3.org/2000/svg" xmlns:xlink="http://www.w3.org/1999/xlink"
	 x="0px" y="0px" viewBox="0 0 100 100" xml:space="preserve">
<path fill="#001A3B" d="M56.96,58.71L46.41,71.79c-0.22,0.28-0.55,0.42-0.88,0.42c-0.2,0-0.41-0.05-0.59-0.16
	c-0.49-0.3-0.68-0.9-0.45-1.42l3.06-6.96h-2.8c-0.42,0-0.81-0.24-1.01-0.61c-0.19-0.38-0.16-0.83,0.08-1.18l8.44-11.89
	c0.32-0.46,0.93-0.61,1.43-0.36c0.5,0.25,0.74,0.83,0.57,1.36l-2.17,6.65l3.76-0.75c0.47-0.09,0.95,0.12,1.19,0.52
	C57.3,57.82,57.26,58.34,56.96,58.71z M90.08,30.8h-9.07v2.27c0,2.5,2.03,4.53,4.53,4.53s4.53-2.03,4.53-4.53V30.8z M60.99,77.26
	l3.55-29.4H35.85l3.55,29.4H60.99z M31.85,45.6H69.1c2.26,0,4.1-1.84,4.1-4.1V25.83c0-2.26-1.84-4.1-4.1-4.1H31.85
	c-2.26,0-4.1,1.84-4.1,4.1v15.66C27.75,43.76,29.59,45.6,31.85,45.6z M92.35,29.66v3.4c0,3.36-2.46,6.16-5.67,6.7v8.05
	c0,9.99-8.13,18.12-18.12,18.12h-3.8c-0.04,0-0.08-0.02-0.12-0.02l-1.37,11.36h6.41c0.63,0,1.13,0.51,1.13,1.13
	c0,0.63-0.51,1.13-1.13,1.13H31.15c-0.63,0-1.13-0.51-1.13-1.13c0-0.63,0.51-1.13,1.13-1.13h5.97l-3.55-29.4h-1.71
	c-3.51,0-6.37-2.86-6.37-6.37V25.83c0-3.51,2.86-6.37,6.37-6.37H69.1c3.51,0,6.37,2.86,6.37,6.37v15.66c0,3.51-2.86,6.37-6.37,6.37
	h-2.28l-1.91,15.8h3.65c8.74,0,15.85-7.11,15.85-15.85v-8.05c-3.21-0.54-5.67-3.33-5.67-6.7v-3.4c0-0.63,0.51-1.13,1.13-1.13h1.13
	v-3.4c0-0.63,0.51-1.13,1.13-1.13s1.13,0.51,1.13,1.13v3.4h4.53v-3.4c0-0.63,0.51-1.13,1.13-1.13c0.63,0,1.13,0.51,1.13,1.13v3.4
	h1.13C91.84,28.53,92.35,29.04,92.35,29.66z M60.14,36.49H40.25c-0.63,0-1.13,0.51-1.13,1.13c0,0.63,0.51,1.13,1.13,1.13h19.88
	c0.63,0,1.13-0.51,1.13-1.13C61.27,36.99,60.76,36.49,60.14,36.49z M61.27,29.69c0,0.63-0.51,1.13-1.13,1.13H40.25
	c-0.63,0-1.13-0.51-1.13-1.13c0-0.63,0.51-1.13,1.13-1.13h19.88C60.76,28.55,61.27,29.06,61.27,29.69z"/>
</svg>
