<?xml version="1.0" encoding="utf-8"?>
<!-- Generator: Adobe Illustrator 24.0.3, SVG Export Plug-In . SVG Version: 6.00 Build 0)  -->
<svg version="1.1" baseProfile="tiny" id="Layer_1" xmlns="http://www.w3.org/2000/svg" xmlns:xlink="http://www.w3.org/1999/xlink"
	 x="0px" y="0px" viewBox="0 0 100 100" xml:space="preserve">
<path fill="#001A3B" d="M48.87,49.54c-0.39-0.49-0.3-1.21,0.2-1.59l10.2-7.93c0.5-0.39,1.21-0.29,1.59,0.2
	c0.39,0.49,0.3,1.21-0.2,1.59l-10.2,7.93c-0.21,0.16-0.45,0.24-0.7,0.24C49.42,49.98,49.09,49.83,48.87,49.54z M40.94,49.55
	c-0.39-0.49-0.31-1.2,0.18-1.59l5.67-4.53c0.49-0.39,1.2-0.31,1.59,0.18c0.39,0.49,0.31,1.2-0.18,1.59l-5.67,4.53
	c-0.21,0.17-0.46,0.25-0.71,0.25C41.5,49.98,41.17,49.83,40.94,49.55z M37.31,64.06c-0.21-0.3-0.56-0.48-0.93-0.48h-7.93
	c-0.42,0-0.81,0.23-1,0.61c-0.2,0.37-0.17,0.83,0.08,1.17l3.96,5.67c0.21,0.3,0.56,0.48,0.93,0.48h7.93c0.42,0,0.81-0.23,1-0.61
	c0.2-0.37,0.17-0.83-0.08-1.17L37.31,64.06z M74.7,63.58h-7.93c-0.37,0-0.72,0.18-0.93,0.48l-3.96,5.67
	c-0.24,0.35-0.27,0.8-0.08,1.17c0.19,0.38,0.58,0.61,1,0.61h7.93c0.37,0,0.72-0.18,0.93-0.48l3.96-5.67
	c0.24-0.35,0.27-0.8,0.08-1.17C75.51,63.81,75.12,63.58,74.7,63.58z M57.69,69.25c0,0.63-0.51,1.13-1.13,1.13h-10.2
	c-0.63,0-1.13-0.51-1.13-1.13s0.51-1.13,1.13-1.13h10.2C57.19,68.11,57.69,68.62,57.69,69.25z M81.49,53.38h-4.53
	c-0.63,0-1.13,0.51-1.13,1.13v5.67c0,0.63,0.51,1.13,1.13,1.13c1.25,0,2.27,1.02,2.27,2.27v13.6c0,1.25-1.02,2.27-2.27,2.27h-2.27
	c-1.25,0-2.27-1.02-2.27-2.27h1.13c0.63,0,1.13-0.51,1.13-1.13s-0.51-1.13-1.13-1.13h-2.27h-40.8h-3.4c-0.63,0-1.13,0.51-1.13,1.13
	s0.51,1.13,1.13,1.13h2.27c0,1.25-1.02,2.27-2.27,2.27h-2.27c-1.25,0-2.27-1.02-2.27-2.27v-13.6c0-1.25,1.02-2.27,2.27-2.27
	c0.63,0,1.13-0.51,1.13-1.13v-5.67c0-0.63-0.51-1.13-1.13-1.13h-4.49v-1.89c0-0.83,0.68-1.51,1.51-1.51h4.14l-0.03,3.39
	c0,0.3,0.12,0.59,0.33,0.81c0.21,0.21,0.5,0.34,0.8,0.34h0.04h47.56h0.01c0.63,0,1.13-0.51,1.13-1.13v-2.21c0-0.02,0-0.03,0-0.05
	l0-1.14h4.48c0.65,0,1.18,0.53,1.18,1.18L81.49,53.38L81.49,53.38z M43,36.43h15.83c8.09,0,14.67,6.55,14.73,14.62v1.19H28.27v-1.08
	C28.27,43.04,34.88,36.43,43,36.43z M47.49,28.45h-2.27v-9.07h2.27c2.5,0,4.53,2.03,4.53,4.53C52.03,26.41,49.99,28.45,47.49,28.45z
	 M80.32,47.71h-4.49V36.19c0-7.4-6.02-13.41-13.41-13.41h-8.22c-0.54-3.21-3.33-5.67-6.7-5.67h-3.4c-0.63,0-1.13,0.51-1.13,1.13
	v1.13h-3.4c-0.63,0-1.13,0.51-1.13,1.13s0.51,1.13,1.13,1.13h3.4v4.53h-3.4c-0.63,0-1.13,0.51-1.13,1.13s0.51,1.13,1.13,1.13h3.4
	v1.13c0,0.63,0.51,1.13,1.13,1.13h3.4c3.36,0,6.16-2.46,6.7-5.67h8.22c6.15,0,11.15,5,11.15,11.15v6.52
	c-2.94-5.1-8.43-8.55-14.73-8.55H43c-8.19,0-15.04,5.82-16.65,13.54h-4.51c-2.08,0-3.78,1.69-3.78,3.78v3.02
	c0,0.63,0.51,1.13,1.13,1.13h4.49v3.54c-1.95,0.5-3.4,2.28-3.4,4.39v13.6c0,2.5,2.03,4.53,4.53,4.53h2.27c2.5,0,4.53-2.03,4.53-4.53
	h38.53c0,2.5,2.03,4.53,4.53,4.53h2.27c2.5,0,4.53-2.03,4.53-4.53v-13.6c0-2.11-1.45-3.89-3.4-4.39v-3.54h4.53
	c0.63,0,1.13-0.51,1.13-1.13v-3.36C83.76,49.26,82.22,47.71,80.32,47.71z M22.56,29.58h2.8l-3.06,6.96
	c-0.23,0.52-0.04,1.13,0.45,1.42c0.18,0.11,0.39,0.16,0.59,0.16c0.33,0,0.66-0.15,0.88-0.42l10.56-13.08
	c0.3-0.37,0.33-0.89,0.09-1.3c-0.25-0.41-0.72-0.62-1.19-0.52l-3.76,0.75l2.17-6.65c0.17-0.53-0.07-1.11-0.57-1.36
	c-0.5-0.26-1.11-0.1-1.43,0.36l-8.45,11.89c-0.25,0.35-0.28,0.8-0.08,1.18C21.75,29.34,22.14,29.58,22.56,29.58z"/>
</svg>
