<?xml version="1.0" encoding="utf-8"?>
<!-- Generator: Adobe Illustrator 24.0.3, SVG Export Plug-In . SVG Version: 6.00 Build 0)  -->
<svg version="1.1" baseProfile="tiny" id="Layer_1" xmlns="http://www.w3.org/2000/svg" xmlns:xlink="http://www.w3.org/1999/xlink"
	 x="0px" y="0px" viewBox="0 0 100 100" xml:space="preserve">
<path fill="#001A3B" d="M91.06,57.84v-0.53H88c0.21,0.46,0.38,0.95,0.5,1.45l1.63,0c0.25,0,0.48-0.1,0.65-0.27
	C90.97,58.32,91.06,58.09,91.06,57.84z M85.83,60.66c0-2.86-2.33-5.19-5.19-5.19s-5.19,2.33-5.19,5.19c0,2.86,2.33,5.19,5.19,5.19
	S85.83,63.52,85.83,60.66z M43.1,58.72l29.07,0.03V46.49L59.45,38.5c-0.09-0.06-0.17-0.08-0.26-0.08H43.1V58.72z M29.15,60.66
	c0-2.86-2.33-5.19-5.19-5.19c-2.86,0-5.19,2.33-5.19,5.19c0,2.86,2.33,5.19,5.19,5.19C26.82,65.84,29.15,63.52,29.15,60.66z
	 M16.59,57.33c1.27-2.81,4.09-4.77,7.37-4.77c3.79,0,6.97,2.62,7.85,6.15l8.39,0.01V47.14H9.79v5.84c0.75,0.06,1.34,0.67,1.34,1.43
	c0,0.8-0.65,1.45-1.45,1.45H8.34H7.63c-0.47,0-0.86,0.38-0.86,0.86c0,0.25,0.13,0.42,0.21,0.5s0.24,0.2,0.49,0.2h0.01L16.59,57.33z
	 M88.09,47.14H75.08v7.65c1.45-1.38,3.41-2.23,5.57-2.23c1.98,0,3.8,0.72,5.21,1.91c0.11-0.02,0.21-0.06,0.32-0.06h4.89v-2.9h-1.45
	c-0.8,0-1.45-0.65-1.45-1.45s0.65-1.45,1.45-1.45h1.02C90.11,47.73,89.18,47.14,88.09,47.14z M93.97,50.07c0,0.01,0,0.03,0,0.04
	v7.73c0,1.02-0.4,1.99-1.12,2.71c-0.72,0.72-1.68,1.12-2.71,1.12c0,0,0,0,0,0l-1.47,0c-0.5,3.98-3.9,7.08-8.02,7.08
	c-4.12,0-7.53-3.1-8.03-7.09l-30.97-0.03l-9.65-0.01c-0.48,4.01-3.89,7.13-8.03,7.13c-4.46,0-8.09-3.63-8.09-8.09
	c0-0.14,0.01-0.27,0.02-0.41L7.5,60.32c-0.01,0-0.02,0-0.04,0c-0.96,0-1.86-0.37-2.54-1.04c-0.69-0.68-1.07-1.59-1.07-2.56
	c0-1.35,0.71-2.53,1.78-3.19c0.27-0.34,0.66-0.57,1.12-0.57h0.12v-7.27c0-0.8,0.65-1.45,1.45-1.45h31.81v-7.27
	c0-0.8,0.65-1.45,1.45-1.45c0.01,0,0.02,0,0.02,0s0.01,0,0.02,0h17.54c0.65,0,1.28,0.19,1.82,0.54l13.04,8.18h14.05
	c3.2,0,5.79,2.57,5.86,5.75c0,0.02,0.01,0.04,0.01,0.06C93.97,50.06,93.97,50.06,93.97,50.07z M84.53,60.66
	c0,2.14-1.74,3.89-3.89,3.89s-3.89-1.74-3.89-3.89c0-2.14,1.74-3.89,3.89-3.89S84.53,58.51,84.53,60.66z M27.85,60.66
	c0,2.14-1.74,3.89-3.89,3.89c-2.14,0-3.89-1.74-3.89-3.89c0-2.14,1.74-3.89,3.89-3.89C26.11,56.77,27.85,58.51,27.85,60.66z
	 M62.02,45.69l-4.33-2.9c-0.32-0.01-0.9,0-1.53,0.03v2.88H62.02z M68.19,47.56c-0.19,0.61-0.75,1.03-1.39,1.03h-12.1
	c-0.8,0-1.45-0.65-1.45-1.45v-5.7c0-0.76,0.59-1.4,1.35-1.45c3.89-0.27,4.23-0.04,4.64,0.34l8.37,5.61
	C68.14,46.29,68.38,46.95,68.19,47.56z M47.46,45.69h1.45v-2.91c-0.42,0.01-0.93,0.02-1.45,0.04V45.69z M46.01,48.59
	c-0.8,0-1.45-0.65-1.45-1.45v-5.7c0-0.77,0.6-1.41,1.37-1.45c4.75-0.27,4.98-0.05,5.43,0.37c0.29,0.28,0.47,0.68,0.47,1.08v5.7
	c0,0.8-0.65,1.45-1.45,1.45H46.01z M19.85,51.5h8.72c0.8,0,1.45-0.65,1.45-1.45s-0.65-1.45-1.45-1.45h-8.72
	c-0.8,0-1.45,0.65-1.45,1.45S19.05,51.5,19.85,51.5z M63.45,54.41H47.46c-0.8,0-1.45,0.65-1.45,1.45c0,0.8,0.65,1.45,1.45,1.45
	h15.99c0.8,0,1.45-0.65,1.45-1.45C64.9,55.06,64.25,54.41,63.45,54.41z M14.04,35.51h20.35c0.8,0,1.45-0.65,1.45-1.45
	s-0.65-1.45-1.45-1.45H14.04c-0.8,0-1.45,0.65-1.45,1.45S13.23,35.51,14.04,35.51z M24.21,29.7c0-0.8,0.65-1.45,1.45-1.45h13.08
	c0.8,0,1.45,0.65,1.45,1.45s-0.65,1.45-1.45,1.45H25.66C24.86,31.15,24.21,30.5,24.21,29.7z"/>
</svg>
