<?xml version="1.0" encoding="utf-8"?>
<!-- Generator: Adobe Illustrator 24.0.3, SVG Export Plug-In . SVG Version: 6.00 Build 0)  -->
<svg version="1.1" baseProfile="tiny" id="Layer_1" xmlns="http://www.w3.org/2000/svg" xmlns:xlink="http://www.w3.org/1999/xlink"
	 x="0px" y="0px" viewBox="0 0 100 100" xml:space="preserve">
<path fill="#001A3B" d="M24.31,23.79c0-0.74,0.6-1.33,1.33-1.33h18.67c0.74,0,1.33,0.6,1.33,1.33s-0.6,1.33-1.33,1.33H25.64
	C24.9,25.13,24.31,24.53,24.31,23.79z M34.97,19.79c0-0.74,0.6-1.33,1.33-1.33h12c0.74,0,1.33,0.6,1.33,1.33s-0.6,1.33-1.33,1.33
	h-12C35.57,21.13,34.97,20.53,34.97,19.79z M80.16,58.32c-2.51,0-4.55,2.04-4.55,4.55s2.04,4.55,4.55,4.55s4.55-2.04,4.55-4.55
	S82.67,58.32,80.16,58.32z M27.02,58.32c-2.51,0-4.55,2.04-4.55,4.55s2.04,4.55,4.55,4.55c2.51,0,4.55-2.04,4.55-4.55
	S29.53,58.32,27.02,58.32z M53.64,46.46v-9.31h2.54c1.73,0,3.38,0.65,4.64,1.83l7.98,7.47H53.64z M62.64,37.04
	c-1.76-1.65-4.06-2.55-6.46-2.55h-3.87c-0.74,0-1.33,0.6-1.33,1.33v11.97c0,0.74,0.6,1.33,1.33,1.33h19.87
	c0.55,0,1.04-0.33,1.24-0.84c0.2-0.51,0.07-1.09-0.33-1.46L62.64,37.04z M45.64,46.46H18.97v-9.31h26.67V46.46z M48.31,47.79V35.82
	c0-0.74-0.6-1.33-1.33-1.33H17.64c-0.74,0-1.33,0.6-1.33,1.33v11.97c0,0.74,0.6,1.33,1.33,1.33h29.33
	C47.71,49.13,48.31,48.53,48.31,47.79z M69.64,54.46c0,0.74-0.6,1.33-1.33,1.33H37.64c-0.74,0-1.33-0.6-1.33-1.33
	s0.6-1.33,1.33-1.33h30.67C69.04,53.13,69.64,53.72,69.64,54.46z M89.05,62.17c-0.36-4.59-4.21-8.22-8.89-8.22
	c-4.78,0-8.69,3.79-8.9,8.52H35.92c-0.22-4.73-4.12-8.52-8.9-8.52c-4.78,0-8.68,3.77-8.9,8.49c-1.76-0.09-3.25-1.14-3.99-2.64h1.17
	c0.74,0,1.33-0.6,1.33-1.33s-0.6-1.33-1.33-1.33h-1.66v-19.8c0-2.32,1.88-4.2,4.2-4.2h39.13c2.67,0,5.21,1.01,7.15,2.83l12.22,11.47
	c0.25,0.23,0.57,0.36,0.91,0.36h2.31c2.79,0,5.35,1.01,7.34,2.68c-0.7,0.04-1.25,0.61-1.25,1.32c0,0.74,0.6,1.33,1.33,1.33h2.23
	c1.12,1.76,1.77,3.85,1.77,6.08C90.97,60.53,90.2,61.66,89.05,62.17z M80.16,69.13c-3.45,0-6.26-2.81-6.26-6.26
	c0-3.45,2.81-6.26,6.26-6.26s6.26,2.81,6.26,6.26C86.42,66.32,83.61,69.13,80.16,69.13z M27.02,69.13c-3.45,0-6.26-2.81-6.26-6.26
	c0-3.45,2.81-6.26,6.26-6.26c3.45,0,6.26,2.81,6.26,6.26C33.28,66.32,30.47,69.13,27.02,69.13z M93.64,59.21
	c0-2.93-0.9-5.66-2.44-7.92c-0.08-0.2-0.22-0.37-0.38-0.5c-2.57-3.43-6.66-5.66-11.26-5.66h-1.78L65.94,34.01
	c-2.44-2.29-5.63-3.55-8.98-3.55H17.84c-3.78,0-6.86,3.08-6.86,6.86v20.42c0,4.07,3.31,7.38,7.38,7.38h0.04
	c1,3.83,4.48,6.67,8.62,6.67c4.14,0,7.62-2.84,8.62-6.67h35.9c1,3.83,4.48,6.67,8.62,6.67c4.18,0,7.69-2.89,8.65-6.78
	C91.62,64.49,93.64,62.08,93.64,59.21z"/>
</svg>
