<?xml version="1.0" encoding="utf-8"?>
<!-- Generator: Adobe Illustrator 24.0.3, SVG Export Plug-In . SVG Version: 6.00 Build 0)  -->
<svg version="1.1" baseProfile="tiny" id="Layer_1" xmlns="http://www.w3.org/2000/svg" xmlns:xlink="http://www.w3.org/1999/xlink"
	 x="0px" y="0px" viewBox="0 0 39 39" xml:space="preserve">
<path fill="#FFFFFF" d="M27.25,20.18L15.88,27.5c-0.13,0.09-0.29,0.13-0.44,0.13c-0.13,0-0.27-0.03-0.39-0.1
	c-0.26-0.14-0.42-0.42-0.42-0.71V12.19c0-0.3,0.16-0.57,0.42-0.71c0.26-0.14,0.58-0.13,0.83,0.03l11.38,7.31
	c0.23,0.15,0.37,0.41,0.37,0.68S27.48,20.03,27.25,20.18z M19.5,0C8.75,0,0,8.75,0,19.5C0,30.25,8.75,39,19.5,39
	C30.25,39,39,30.25,39,19.5C39,8.75,30.25,0,19.5,0z"/>
</svg>
